<?xml version="1.0" standalone="no"?>
<!DOCTYPE svg PUBLIC "-//W3C//DTD SVG 20010904//EN"
 "http://www.w3.org/TR/2001/REC-SVG-20010904/DTD/svg10.dtd">
<svg version="1.0" xmlns="http://www.w3.org/2000/svg"
 width="220.000000pt" height="242.000000pt" viewBox="0 0 220.000000 242.000000"
 preserveAspectRatio="xMidYMid meet">

<g transform="translate(0.000000,242.000000) scale(0.100000,-0.100000)"
fill="#000000" stroke="none">
<path d="M518 2313 c-15 -19 -278 -945 -278 -981 0 -53 -8 -52 534 -52 467 0
504 1 518 18 17 19 278 942 278 983 0 14 -5 30 -12 37 -9 9 -138 12 -518 12
-470 0 -508 -1 -522 -17z"/>
<path d="M1576 1848 c-16 -26 -146 -484 -146 -516 0 -50 11 -52 299 -52 243 0
269 2 283 18 18 20 148 479 148 520 0 51 -4 52 -297 52 -272 0 -273 0 -287
-22z"/>
<path d="M188 1110 c-19 -12 -29 -39 -103 -308 -31 -111 -55 -214 -53 -229 5
-48 30 -53 289 -53 241 0 294 7 303 38 40 134 136 491 136 508 0 50 -24 54
-300 54 -147 0 -262 -5 -272 -10z"/>
<path d="M906 1107 c-11 -8 -35 -75 -67 -188 -140 -492 -219 -781 -219 -802 0
-13 5 -28 12 -35 9 -9 139 -12 525 -12 478 0 513 1 521 17 9 17 32 98 132 458
23 83 64 228 91 324 27 95 49 184 49 197 0 54 -2 54 -535 54 -388 0 -495 -3
-509 -13z"/>
</g>
</svg>
